# xmcd
#
# Track frame offsets:
#	150
#	15970
#	30380
#	45357
#	61549
#	79119
#	92996
#	109361
#	128531
#	144465
#	163675
#	179569
#	195683
#
# Disc length: 2806 seconds
#
# Revision: 0
# Processed by: cddbd v1.5.2PL0 Copyright (c) Steve Scherf et al.
# Submitted via: dBpowerAMP V4.0
#
DISCID=9d0af40d
DTITLE=Shazza - Tak Blisko Nieba
DYEAR=1997
DGENRE=Discopolo
TTITLE0=Tak Blisko Nieba
TTITLE1=Male Pieski Dwa
TTITLE2=Hasta Manana
TTITLE3=Jestem Zakochana
TTITLE4=Noc
TTITLE5=Ja Wole Miec
TTITLE6=Tylkoraz
TTITLE7=Pieski Dwa - dJ. Mix
TTITLE8=Nie Pytaj Mnie
TTITLE9=Tyle Slonca, Tyle Gwiazd
TTITLE10=Tak Blisko Nieba (InstR.)
TTITLE11=Jestem Zakochana (InstR.)
TTITLE12=Pieski Male Dwa (InstR.)
EXTD=DiscoPolo :-)
EXTT0=
EXTT1=
EXTT2=
EXTT3=
EXTT4=
EXTT5=
EXTT6=
EXTT7=
EXTT8=
EXTT9=
EXTT10=
EXTT11=
EXTT12=
PLAYORDER=
